<svg width="52" height="52" viewBox="0 0 52 52" fill="none" xmlns="http://www.w3.org/2000/svg">
<path fill-rule="evenodd" clip-rule="evenodd" d="M20.5631 9.60714C12.8403 9.60714 6.92972 14.9986 6.92972 21.2643C6.92972 23.5138 7.67651 25.6266 8.97883 27.4025C9.15617 27.639 9.25204 27.9266 9.25204 28.2221C9.25204 29.7066 8.86043 31.1546 8.37775 32.4752C8.05348 33.3378 7.69807 34.1883 7.31222 35.0252C10.3267 34.7246 12.3211 33.7502 13.5051 32.3295C13.6888 32.1119 13.9359 31.9572 14.2119 31.887C14.4878 31.8168 14.7788 31.8346 15.0442 31.9379C16.8078 32.6038 18.6779 32.9433 20.5631 32.9396C28.2769 32.9305 34.1965 27.53 34.1965 21.2643C34.1965 15.0077 28.2769 9.60714 20.5631 9.60714ZM4.19758 21.2643C4.19758 13.1589 11.7019 6.875 20.5631 6.875C29.4153 6.875 36.9286 13.1407 36.9286 21.2643C36.9286 29.397 29.4153 35.6627 20.5631 35.6627C18.5869 35.6627 16.6926 35.3621 14.944 34.7975C12.8858 36.7464 9.88954 37.6936 6.20115 37.8393C5.86435 37.8475 5.53092 37.7708 5.23167 37.616C4.93242 37.4612 4.67702 37.2335 4.4891 36.9539C4.30118 36.6743 4.1868 36.3518 4.15654 36.0163C4.12628 35.6808 4.18111 35.343 4.31597 35.0343L4.69847 34.1691C5.09008 33.2948 5.48168 32.4388 5.80954 31.528C6.18293 30.5171 6.43793 29.5427 6.50168 28.632C5.00742 26.4684 4.20406 23.9028 4.19758 21.2734V21.2643Z" fill="#867BFF"/>
<path fill-rule="evenodd" clip-rule="evenodd" d="M39.67 17.5941C39.5675 17.7417 39.4951 17.9081 39.457 18.0837C39.419 18.2594 39.4159 18.4408 39.448 18.6176C39.4802 18.7944 39.5469 18.9631 39.6444 19.1141C39.7419 19.2651 39.8682 19.3954 40.0161 19.4975C43.1489 21.665 45.0705 24.9435 45.0705 28.5591C45.0705 30.8085 44.3328 32.9123 43.0214 34.6882C42.8441 34.9246 42.7482 35.2122 42.7482 35.5078C42.7482 36.9923 43.1398 38.4403 43.6225 39.7609C43.9412 40.6352 44.3237 41.5094 44.688 42.3109C41.6736 42.0103 39.6791 41.0359 38.4952 39.6152C38.3114 39.3976 38.0643 39.2429 37.7884 39.1727C37.5124 39.1025 37.2214 39.1203 36.9561 39.2235C35.1924 39.8895 33.3223 40.229 31.4371 40.2253C28.7232 40.2253 26.2005 39.5332 24.0786 38.3766C23.7621 38.2165 23.3959 38.1857 23.0572 38.2907C22.7185 38.3957 22.4339 38.6284 22.2636 38.9394C22.0932 39.2505 22.0506 39.6156 22.1445 39.9575C22.2385 40.2994 22.4618 40.5914 22.7671 40.7718C24.9406 41.9382 27.3265 42.6555 29.7829 42.8808C32.2393 43.1061 34.716 42.8348 37.0653 42.0832C39.1145 44.0321 42.1107 44.9793 45.7991 45.125C46.1359 45.1332 46.4693 45.0564 46.7686 44.9017C47.0678 44.7469 47.3232 44.5192 47.5111 44.2396C47.6991 43.96 47.8134 43.6375 47.8437 43.302C47.874 42.9664 47.8191 42.6287 47.6843 42.32L47.3018 41.4548C46.9011 40.5805 46.5186 39.7244 46.1907 38.8137C45.825 37.8857 45.592 36.9107 45.4986 35.9177C46.9928 33.7541 47.7962 31.1885 47.8027 28.5591C47.8027 23.9144 45.3255 19.8526 41.5734 17.248C41.4258 17.1455 41.2594 17.0731 41.0837 17.0351C40.9081 16.997 40.7267 16.9939 40.5499 17.0261C40.3731 17.0582 40.2043 17.1249 40.0533 17.2224C39.9023 17.3199 39.7721 17.4462 39.67 17.5941Z" fill="#867BFF"/>
</svg>
