<svg width="378" height="292" viewBox="0 0 378 292" fill="none" xmlns="http://www.w3.org/2000/svg">
<g clip-path="url(#clip0_778_2258)">
<path d="M117.447 161.719C119.046 159.572 120.105 157.075 120.541 154.436L138.331 132.865L127.832 124.692L110.915 147.453C108.547 148.688 106.506 150.475 104.967 152.666C101.043 158.086 100.65 164.511 104.099 167.008C107.542 169.51 113.518 167.139 117.442 161.719L117.447 161.719Z" fill="#FFB6B6"/>
<path d="M189.503 76.1086L167.249 61.2201L122.086 130.019L133.846 142.656L189.503 76.1086Z" fill="#867BFF"/>
<path d="M0 159.845C0 160.32 0.381995 160.703 0.856759 160.703H377.143C377.618 160.703 378 160.32 378 159.845C378 159.37 377.618 158.987 377.143 158.987H0.856759C0.381995 158.987 0 159.37 0 159.845Z" fill="#3F3D56"/>
<path d="M151.521 56.8492L149.038 39.7206L170.965 34.1367L173.879 49.2929L151.521 56.8492Z" fill="#FFB6B6"/>
<path d="M85.3867 240.352L87.9897 264.665L105.911 259.163L103.018 239.773L85.3867 240.352Z" fill="#FFB6B6"/>
<path d="M148.694 134.706C148.694 134.706 90.0085 145.994 83.0725 163.074C76.1366 180.153 84.2294 244.116 84.2294 244.116L104.175 246.144L112.557 172.624C112.557 172.624 163.439 171.756 167.193 165.68C170.948 159.604 170.375 137.602 170.375 137.602L148.694 134.706Z" fill="#2F2E41"/>
<path d="M85.6212 252.705L73.9977 264.266C73.9977 264.266 54.1612 280.581 66.8816 279.712C79.6021 278.844 112.557 271.03 112.268 264.949C111.979 258.868 106.773 246.717 106.773 246.717L85.6157 252.7H85.6212L85.6212 252.705Z" fill="#2F2E41"/>
<path d="M153.327 247.356L166.435 267.987L180.061 255.098L168.874 239.002L153.327 247.356Z" fill="#FFB6B6"/>
<path d="M163.238 124.555C163.238 124.555 115.652 160.746 117 179.132C118.353 197.517 153.955 251.241 153.955 251.241L172.727 244.193L147.658 174.586C147.658 174.586 192.869 151.201 193.541 144.088C194.212 136.974 183.947 117.518 183.947 117.518L163.232 124.555L163.238 124.555Z" fill="#2F2E41"/>
<path d="M159.401 256.951L152.782 274.582C152.782 274.582 143.183 297.283 154.195 290.853C165.207 284.422 191.276 262.78 188.324 257.459C185.371 252.137 175.319 243.559 175.319 243.559L159.401 256.951Z" fill="#2F2E41"/>
<path d="M159.204 45.0859C169.059 45.0859 177.049 37.0869 177.049 27.2197C177.049 17.3524 169.059 9.35345 159.204 9.35345C149.349 9.35345 141.359 17.3524 141.359 27.2197C141.359 37.0869 149.349 45.0859 159.204 45.0859Z" fill="#FFB6B6"/>
<path d="M172.399 40.9335L150.14 57.4338L146.669 129.215L138.287 137.318L167.193 165.685C167.193 165.685 198.991 155.845 195.81 140.793L192.629 125.741L193.775 108.945C195.455 84.386 187.815 60.1 172.388 40.9389H172.399V40.9335Z" fill="#867BFF"/>
<path d="M172.04 41.305L161.18 40.9444C161.18 40.9444 163.996 23.9087 157.284 24.0016L150.566 24.0999L151.216 21.1113C151.216 21.1113 136.039 10.8724 142.997 6.57793C149.96 2.28894 154.817 -1.56841 158.795 0.64438C162.779 2.85717 170.845 3.72043 170.845 3.72043C170.845 3.72043 185.153 9.75232 184.727 14.7953C184.302 19.8383 181.049 41.9279 172.034 41.2996H172.04V41.305Z" fill="#2F2E41"/>
<path d="M124.672 162.872C126.162 160.648 127.101 158.102 127.406 155.447L144.116 133.029L133.229 125.38L117.453 148.945C115.144 150.294 113.196 152.185 111.767 154.441C108.11 160.052 108.039 166.483 111.603 168.811C115.166 171.138 121.016 168.477 124.672 162.872Z" fill="#FFB6B6"/>
<path d="M192.427 73.8139L169.474 60.04L127.744 130.986L140.11 143.022L192.427 73.8139Z" fill="#867BFF"/>
<path d="M309.131 179.793L314.032 226.78L295.347 228.283L294.277 182.678L309.131 179.793Z" fill="#FFB6B6"/>
<path d="M314.256 216.416L329.317 222.874C329.317 222.874 353.765 230.714 341.623 234.604C329.481 238.494 295.969 243.401 293.999 237.642C292.029 231.883 292.389 218.667 292.389 218.667L314.256 216.421L314.256 216.416Z" fill="#2F2E41"/>
<path d="M233.78 119.747L241.546 123.473C241.546 123.473 298.616 120.266 302.49 130.866C306.365 141.471 313.857 204.827 313.857 204.827L293.71 206.122L284.929 163.194L233.786 119.747L233.78 119.747Z" fill="#2F2E41"/>
<path d="M287.833 132.565C285.918 130.696 283.588 129.314 281.028 128.533L262.016 108.038L252.537 117.381L272.843 137.165C273.754 139.678 275.255 141.94 277.219 143.754C282.071 148.366 288.379 149.595 291.31 146.508C294.24 143.421 292.685 137.176 287.833 132.57V132.565Z" fill="#FFB6B6"/>
<path d="M212.563 49.7847L194.888 69.9074L257.065 123.79L271.123 113.786L212.563 49.7847Z" fill="#867BFF"/>
<path d="M280.701 178.831L250.611 215.219L236.455 202.915L268.242 170.226L280.701 178.831Z" fill="#FFB6B6"/>
<path d="M257.617 205.248L263.555 220.535C263.555 220.535 275.074 243.505 263.8 237.544C252.526 231.583 225.573 211.056 228.297 205.614C231.02 200.172 240.706 191.179 240.706 191.179L257.617 205.242V205.248Z" fill="#2F2E41"/>
<path d="M199.69 134.488C199.69 134.488 188.323 161.38 206.921 161.38C225.518 161.38 269.169 159.828 269.169 159.828L256.252 182.585L271.494 190.343C271.494 190.343 303.522 160.085 301.453 146.382C299.385 132.679 241.546 123.473 241.546 123.473L229.862 126.549L199.69 134.488Z" fill="#2F2E41"/>
<path d="M198.151 6.07526C198.151 6.07526 218.201 7.14067 219.996 14.8444C221.791 22.5428 217.682 30.405 224.132 30.323C230.583 30.2411 232.836 33.115 232.836 33.115C232.836 33.115 226.255 51.7734 215.92 52.8443C205.584 53.9152 198.151 6.07526 198.151 6.07526Z" fill="#2F2E41"/>
<path d="M211.598 57.5322L212.22 40.2342L189.819 37.0543L188.553 52.4346L211.598 57.5322Z" fill="#FFB6B6"/>
<path d="M217.682 23.2367C220.809 32.5905 215.767 42.7146 206.424 45.8453C197.082 48.976 186.97 43.9276 183.843 34.5738C180.716 25.22 185.758 15.0958 195.101 11.9651C204.443 8.83441 214.555 13.8829 217.682 23.2367Z" fill="#FFB6B6"/>
<path d="M214.632 50.7572L194.125 46.4791L190.305 80.7801C189.328 84.5828 191.216 99.0287 192.22 102.821L198.397 144.426L241.547 123.468L231.718 99.0888L233.852 81.5504L214.627 50.7572L214.632 50.7572Z" fill="#867BFF"/>
<path d="M224.378 96.7613C221.759 97.3076 219.314 98.4714 217.235 100.16L189.633 104.498L192.078 117.589L219.81 111.775C222.403 112.42 225.115 112.437 227.712 111.825C234.244 110.371 238.785 105.82 237.862 101.662C236.94 97.5043 230.899 95.3079 224.373 96.7612L224.378 96.7613Z" fill="#FFB6B6"/>
<path d="M208.067 72.3933L189.552 56.5323L162.233 104.498C161.426 115.677 171.614 124.473 182.539 122.02L207.041 116.037L202.365 96.2969L188.591 95.7888L208.078 72.3879H208.067V72.3933Z" fill="#867BFF"/>
<path d="M187.036 9.53924C187.036 9.53924 165.077 15.5984 170.059 24.3075C175.041 33.0166 180.891 35.4644 180.165 40.3817C179.439 45.299 185.219 64.3726 194.01 61.4277C202.801 58.4828 215.925 52.8443 215.925 52.8443C215.925 52.8443 197.393 37.2564 200.657 34.612C203.92 31.9676 193.622 13.3037 193.622 13.3037C193.622 13.3037 204.073 8.24435 209.612 9.76325C215.151 11.2821 218.239 10.7686 218.239 10.7686C218.239 10.7686 203.15 -3.37688 196.444 2.24524C189.737 7.86736 187.041 9.5447 187.041 9.5447L187.036 9.53924Z" fill="#2F2E41"/>
</g>
<defs>
<clipPath id="clip0_778_2258">
<rect width="378" height="292" fill="white"/>
</clipPath>
</defs>
</svg>
