<svg width="35" height="30" viewBox="0 0 35 30" fill="none" xmlns="http://www.w3.org/2000/svg">
<path fill-rule="evenodd" clip-rule="evenodd" d="M22.9688 15C22.9688 17.5888 20.5203 19.6875 17.5 19.6875C14.4797 19.6875 12.0312 17.5888 12.0312 15C12.0312 12.4112 14.4797 10.3125 17.5 10.3125C20.5203 10.3125 22.9688 12.4112 22.9688 15ZM17.5 16.875C18.7081 16.875 19.6875 16.0355 19.6875 15C19.6875 13.9645 18.7081 13.125 17.5 13.125C16.2919 13.125 15.3125 13.9645 15.3125 15C15.3125 16.0355 16.2919 16.875 17.5 16.875Z" fill="black"/>
<path fill-rule="evenodd" clip-rule="evenodd" d="M27.7308 21.5819C25.0502 23.1645 21.4048 24.375 17.5 24.375C13.5952 24.375 9.94983 23.1645 7.26918 21.5819C5.92135 20.7861 4.72227 19.8411 3.82851 18.8061C2.97256 17.8148 2.1875 16.4939 2.1875 15C2.1875 13.5061 2.97256 12.1852 3.82851 11.1939C4.72227 10.1589 5.92135 9.21386 7.26918 8.41813C9.94983 6.83554 13.5952 5.625 17.5 5.625C21.4048 5.625 25.0502 6.83554 27.7308 8.41813C29.0786 9.21386 30.2777 10.1589 31.1715 11.1939C32.0274 12.1852 32.8125 13.5061 32.8125 15C32.8125 16.4939 32.0274 17.8148 31.1715 18.8061C30.2777 19.8411 29.0786 20.7861 27.7308 21.5819ZM17.5 21.5625C23.7772 21.5625 29.5312 17.625 29.5312 15C29.5312 12.375 23.7772 8.4375 17.5 8.4375C11.2228 8.4375 5.46875 12.375 5.46875 15C5.46875 17.625 11.2228 21.5625 17.5 21.5625Z" fill="black"/>
</svg>
